<svg height="603.060546875" version="1.1" width="565.66015625" xmlns="http://www.w3.org/2000/svg" xmlns:xlink="http://www.w3.org/1999/xlink" viewBox="0 0 565.66015625 603.060546875" preserveAspectRatio="xMidYMid meet" style="overflow: hidden; position: relative;"><desc>Created with Raphael 2.3.0</desc><defs><path stroke-linecap="round" d="M5,0 0,2.5 5,5z" id="raphael-marker-block"></path><marker id="raphael-marker-endblock33-objkzwdf" markerHeight="3" markerWidth="3" orient="auto" refX="1.5" refY="1.5"><use xlink:href="#raphael-marker-block" transform="rotate(180 1.5 1.5) scale(0.6,0.6)" stroke-width="1.6667" fill="black" stroke="none"></use></marker><marker id="raphael-marker-endblock33-objqsal0" markerHeight="3" markerWidth="3" orient="auto" refX="1.5" refY="1.5"><use xlink:href="#raphael-marker-block" transform="rotate(180 1.5 1.5) scale(0.6,0.6)" stroke-width="1.6667" fill="black" stroke="none"></use></marker><marker id="raphael-marker-endblock33-objrvjr7" markerHeight="3" markerWidth="3" orient="auto" refX="1.5" refY="1.5"><use xlink:href="#raphael-marker-block" transform="rotate(180 1.5 1.5) scale(0.6,0.6)" stroke-width="1.6667" fill="black" stroke="none"></use></marker><marker id="raphael-marker-endblock33-objhd3ts" markerHeight="3" markerWidth="3" orient="auto" refX="1.5" refY="1.5"><use xlink:href="#raphael-marker-block" transform="rotate(180 1.5 1.5) scale(0.6,0.6)" stroke-width="1.6667" fill="black" stroke="none"></use></marker><marker id="raphael-marker-endblock33-objfgtxw" markerHeight="3" markerWidth="3" orient="auto" refX="1.5" refY="1.5"><use xlink:href="#raphael-marker-block" transform="rotate(180 1.5 1.5) scale(0.6,0.6)" stroke-width="1.6667" fill="black" stroke="none"></use></marker><marker id="raphael-marker-endblock33-obj67zmo" markerHeight="3" markerWidth="3" orient="auto" refX="1.5" refY="1.5"><use xlink:href="#raphael-marker-block" transform="rotate(180 1.5 1.5) scale(0.6,0.6)" stroke-width="1.6667" fill="black" stroke="none"></use></marker><marker id="raphael-marker-endblock33-obj8plrx" markerHeight="3" markerWidth="3" orient="auto" refX="1.5" refY="1.5"><use xlink:href="#raphael-marker-block" transform="rotate(180 1.5 1.5) scale(0.6,0.6)" stroke-width="1.6667" fill="black" stroke="none"></use></marker><marker id="raphael-marker-endblock33-objzjc60" markerHeight="3" markerWidth="3" orient="auto" refX="1.5" refY="1.5"><use xlink:href="#raphael-marker-block" transform="rotate(180 1.5 1.5) scale(0.6,0.6)" stroke-width="1.6667" fill="black" stroke="none"></use></marker><marker id="raphael-marker-endblock33-obj1kqgi" markerHeight="3" markerWidth="3" orient="auto" refX="1.5" refY="1.5"><use xlink:href="#raphael-marker-block" transform="rotate(180 1.5 1.5) scale(0.6,0.6)" stroke-width="1.6667" fill="black" stroke="none"></use></marker></defs><rect x="0" y="0" width="99.375" height="36.015625" rx="20" ry="20" fill="#008000" stroke="#0000ff" stroke-width="3" class="start-element" id="st0" transform="matrix(1,0,0,1,36.8984,18.209)" style=""></rect><text x="10" y="18.0078125" text-anchor="start" font-family="Helvetica" font-size="14px" stroke="none" fill="#ffff00" id="st0t" class="start-elementt" font="normal" font-weight="normal" transform="matrix(1,0,0,1,36.8984,18.209)" stroke-width="1" style="text-anchor: start; font-family: Helvetica; font-size: 14px; font-weight: normal;"><tspan dy="4.78125">start OpenID</tspan></text><path fill="#ffff00" stroke="#000000" d="M30.216796875,15.1083984375L0,30.216796875L60.43359375,60.43359375L120.8671875,30.216796875L60.43359375,0L0,30.216796875" stroke-width="3" font="normal" font-family="Helvetica" font-weight="normal" id="cond1" class="flowchart" transform="matrix(1,0,0,1,26.1523,110.2246)" style="font-family: Helvetica; font-weight: normal;"></path><text x="35.216796875" y="30.216796875" text-anchor="start" font-family="Helvetica" font-size="14px" stroke="none" fill="#ff0000" id="cond1t" class="flowchartt" font="normal" font-weight="normal" transform="matrix(1,0,0,1,26.1523,110.2246)" stroke-width="1" style="text-anchor: start; font-family: Helvetica; font-size: 14px; font-weight: normal;"><tspan dy="4.787109375">Has ID?</tspan></text><path fill="#ffe4c4" stroke="#000000" d="M10,18.0078125L0,36.015625L100.703125,36.015625L120.703125,0L20,0L10,18.0078125" stroke-width="3" font="normal" font-family="Helvetica" font-weight="normal" id="io2" class="flowchart" transform="matrix(1,0,0,1,26.2344,238.8672)" style="font-family: Helvetica; font-weight: normal;"></path><text x="30" y="18.0078125" text-anchor="start" font-family="Helvetica" font-size="14px" stroke="none" fill="#000000" id="io2t" class="flowchartt" font="normal" font-weight="normal" transform="matrix(1,0,0,1,26.2344,238.8672)" stroke-width="1" style="text-anchor: start; font-family: Helvetica; font-size: 14px; font-weight: normal;"><tspan dy="4.78125">output: ID</tspan></text><path fill="#ffff00" stroke="#000000" d="M25.845703125,13.505859375L0,27.01171875L51.69140625,54.0234375L103.3828125,27.01171875L51.69140625,0L0,27.01171875" stroke-width="3" font="normal" font-family="Helvetica" font-weight="normal" id="cond5" class="flowchart" transform="matrix(1,0,0,1,34.8945,334.0879)" style="font-family: Helvetica; font-weight: normal;"></path><text x="30.845703125" y="27.01171875" text-anchor="start" font-family="Helvetica" font-size="14px" stroke="none" fill="#ff0000" id="cond5t" class="flowchartt" font="normal" font-weight="normal" transform="matrix(1,0,0,1,34.8945,334.0879)" stroke-width="1" style="text-anchor: start; font-family: Helvetica; font-size: 14px; font-weight: normal;"><tspan dy="4.78515625">Valid?</tspan></text><rect x="0" y="0" width="108.484375" height="36.015625" rx="0" ry="0" fill="#90ee90" stroke="#0000ff" stroke-width="3" class="flowchart" id="sub6" transform="matrix(1,0,0,1,32.3438,456.3203)" style=""></rect><rect x="10" y="0" width="88.484375" height="36.015625" rx="0" ry="0" fill="#90ee90" stroke="#0000ff" stroke-width="3" id="sub6i" font="normal" font-family="Helvetica" font-weight="normal" transform="matrix(1,0,0,1,32.3438,456.3203)" style="font-family: Helvetica; font-weight: normal;"></rect><text x="20" y="18.0078125" text-anchor="start" font-family="Helvetica" font-size="14px" stroke="none" fill="#000000" id="sub6t" class="flowchartt" font="normal" font-weight="normal" transform="matrix(1,0,0,1,32.3438,456.3203)" stroke-width="1" style="text-anchor: start; font-family: Helvetica; font-size: 14px; font-weight: normal;"><tspan dy="4.78125">C Interface</tspan></text><rect x="0" y="0" width="161.171875" height="43.015625" rx="20" ry="20" fill="#ffffff" stroke="#000000" stroke-width="3" class="end-element" id="e7" transform="matrix(1,0,0,1,6,557.0449)" style=""></rect><text x="10" y="21.5078125" text-anchor="start" font-family="Helvetica" font-size="20px" stroke="none" fill="#000000" id="e7t" class="end-elementt" font="normal" font-weight="normal" transform="matrix(1,0,0,1,6,557.0449)" stroke-width="1" style="text-anchor: start; font-family: Helvetica; font-size: 20px; font-weight: normal;"><tspan dy="6.90625">end BusTracker</tspan></text><rect x="0" y="0" width="118.796875" height="36.015625" rx="0" ry="0" fill="#faf0e6" stroke="#000000" stroke-width="3" class="flowchart" id="op4" transform="matrix(1,0,0,1,215.4648,343.0918)" style=""></rect><text x="10" y="18.0078125" text-anchor="start" font-family="Helvetica" font-size="14px" stroke="none" fill="#000000" id="op4t" class="flowchartt" font="normal" font-weight="normal" transform="matrix(1,0,0,1,215.4648,343.0918)" stroke-width="1" style="text-anchor: start; font-family: Helvetica; font-size: 14px; font-weight: normal;"><tspan dy="4.78125">AWS-SDK-CPP</tspan></text><rect x="0" y="0" width="133.625" height="36.015625" rx="0" ry="0" fill="#faf0e6" stroke="#000000" stroke-width="3" class="flowchart" id="op3" transform="matrix(1,0,0,1,404.0352,343.0918)" style=""></rect><text x="10" y="18.0078125" text-anchor="start" font-family="Helvetica" font-size="14px" stroke="none" fill="#000000" id="op3t" class="flowchartt" font="normal" font-weight="normal" transform="matrix(1,0,0,1,404.0352,343.0918)" stroke-width="1" style="text-anchor: start; font-family: Helvetica; font-size: 14px; font-weight: normal;"><tspan dy="4.78125">Cognito User Pool</tspan></text><path fill="none" stroke="#000000" d="M86.5859375,54.224609375C86.5859375,54.224609375,86.5859375,92.42538022994995,86.5859375,105.72476969263516" stroke-width="3" marker-end="url(#raphael-marker-endblock33-objkzwdf)" font="normal" font-family="Helvetica" font-weight="normal" style="font-family: Helvetica; font-weight: normal;"></path><path fill="none" stroke="#000000" d="M86.5859375,170.658203125C86.5859375,170.658203125,86.5859375,219.16095208143815,86.5859375,234.36542709610285" stroke-width="3" marker-end="url(#raphael-marker-endblock33-objqsal0)" font="normal" font-family="Helvetica" font-weight="normal" style="font-family: Helvetica; font-weight: normal;"></path><text x="91.5859375" y="180.658203125" text-anchor="start" font-family="Helvetica" font-size="14px" stroke="none" fill="#000000" font="normal" font-weight="normal" stroke-width="1" style="text-anchor: start; font-family: Helvetica; font-size: 14px; font-weight: normal;"><tspan dy="4.853515625">yes</tspan></text><path fill="none" stroke="#000000" d="M147.01953125,140.44140625C147.01953125,140.44140625,274.86328125,140.44140625,274.86328125,140.44140625C274.86328125,140.44140625,274.86328125,308.76443191303406,274.86328125,338.5990306999879" stroke-width="3" marker-end="url(#raphael-marker-endblock33-objrvjr7)" font="normal" font-family="Helvetica" font-weight="normal" style="font-family: Helvetica; font-weight: normal;"></path><text x="152.01953125" y="130.44140625" text-anchor="start" font-family="Helvetica" font-size="14px" stroke="none" fill="#000000" font="normal" font-weight="normal" stroke-width="1" style="text-anchor: start; font-family: Helvetica; font-size: 14px; font-weight: normal;"><tspan dy="4.84765625">no</tspan></text><path fill="none" stroke="#000000" d="M86.5859375,274.8828125C86.5859375,274.8828125,86.5859375,315.77291181869805,86.5859375,329.589293033805" stroke-width="3" marker-end="url(#raphael-marker-endblock33-objhd3ts)" font="normal" font-family="Helvetica" font-weight="normal" style="font-family: Helvetica; font-weight: normal;"></path><path fill="none" stroke="#000000" d="M86.5859375,388.111328125C86.5859375,388.111328125,86.5859375,436.61407708143815,86.5859375,451.81855209610285" stroke-width="3" marker-end="url(#raphael-marker-endblock33-objfgtxw)" font="normal" font-family="Helvetica" font-weight="normal" style="font-family: Helvetica; font-weight: normal;"></path><text x="91.5859375" y="398.111328125" text-anchor="start" font-family="Helvetica" font-size="14px" stroke="none" fill="#000000" font="normal" font-weight="normal" stroke-width="1" style="text-anchor: start; font-family: Helvetica; font-size: 14px; font-weight: normal;"><tspan dy="4.853515625">yes</tspan></text><path fill="none" stroke="#000000" d="M138.27734375,361.099609375C138.27734375,361.099609375,194.47541869804263,361.099609375,210.96713893426022,361.099609375" stroke-width="3" marker-end="url(#raphael-marker-endblock33-obj67zmo)" font="normal" font-family="Helvetica" font-weight="normal" style="font-family: Helvetica; font-weight: normal;"></path><text x="143.27734375" y="351.099609375" text-anchor="start" font-family="Helvetica" font-size="14px" stroke="none" fill="#000000" font="normal" font-weight="normal" stroke-width="1" style="text-anchor: start; font-family: Helvetica; font-size: 14px; font-weight: normal;"><tspan dy="4.849609375">no</tspan></text><path fill="none" stroke="#000000" d="M86.5859375,492.3359375C86.5859375,492.3359375,86.5859375,537.8715306278318,86.5859375,552.5460870069182" stroke-width="3" marker-end="url(#raphael-marker-endblock33-obj8plrx)" font="normal" font-family="Helvetica" font-weight="normal" style="font-family: Helvetica; font-weight: normal;"></path><path fill="none" stroke="#000000" d="M334.26171875,361.099609375C334.26171875,361.099609375,384.10703443549573,361.099609375,399.5376643889158,361.099609375" stroke-width="3" marker-end="url(#raphael-marker-endblock33-objzjc60)" font="normal" font-family="Helvetica" font-weight="normal" style="font-family: Helvetica; font-weight: normal;"></path><path fill="none" stroke="#000000" d="M537.66015625,361.099609375C537.66015625,361.099609375,562.66015625,361.099609375,562.66015625,361.099609375C562.66015625,361.099609375,562.66015625,203.8671875,562.66015625,203.8671875C562.66015625,203.8671875,280.86328125,203.8671875,280.86328125,203.8671875C280.86328125,203.8671875,274.86328125,191.8671875,268.86328125,203.8671875C268.86328125,203.8671875,86.5859375,203.8671875,86.5859375,203.8671875C86.5859375,203.8671875,86.5859375,224.91025924682617,86.5859375,234.36320163309574" stroke-width="3" marker-end="url(#raphael-marker-endblock33-obj1kqgi)" font="normal" font-family="Helvetica" font-weight="normal" style="font-family: Helvetica; font-weight: normal;"></path></svg>